<?xml version="1.0" encoding="UTF-8" standalone="no"?>
<!-- Uploaded to: SVG Repo, www.svgrepo.com, Generator: SVG Repo Mixer Tools -->

<svg
   fill="#000000"
   width="800px"
   height="800px"
   viewBox="0 0 32 32"
   version="1.1"
   id="svg1"
   sodipodi:docname="folder-alt-svgrepo-com.svg"
   inkscape:version="1.4 (e7c3feb100, 2024-10-09)"
   xmlns:inkscape="http://www.inkscape.org/namespaces/inkscape"
   xmlns:sodipodi="http://sodipodi.sourceforge.net/DTD/sodipodi-0.dtd"
   xmlns="http://www.w3.org/2000/svg"
   xmlns:svg="http://www.w3.org/2000/svg">
  <defs
     id="defs1" />
  <sodipodi:namedview
     id="namedview1"
     pagecolor="#ffffff"
     bordercolor="#000000"
     borderopacity="0.25"
     inkscape:showpageshadow="2"
     inkscape:pageopacity="0.0"
     inkscape:pagecheckerboard="0"
     inkscape:deskcolor="#d1d1d1"
     inkscape:zoom="0.55507882"
     inkscape:cx="390.93547"
     inkscape:cy="300.85817"
     inkscape:window-width="1536"
     inkscape:window-height="836"
     inkscape:window-x="0"
     inkscape:window-y="0"
     inkscape:window-maximized="1"
     inkscape:current-layer="svg1" />
  <path
     d="m 30.005,10.02 h -15 l -3,-3 h -10 c -1.105,0 -2,0.896 -2,2 v 5 h -0.009 v 2 h 0.009 v 14 c 0,1.105 0.895,2 2,2 h 28 c 1.105,0 2,-0.895 2,-2 v -18 c 0,-1.104 -0.895,-2 -2,-2 z m -28,-1 h 9.086 l 2.457,2.414 0.629,0.586 h 15.829 v 2 h -28 v -5 0 z m 0,21 v -14 h 28 v 14 z"
     id="path1" />
  <path
     style="fill:#000000;stroke-width:1.504;fill-opacity:1;stroke-dasharray:none;stroke:#000000;stroke-opacity:1"
     d="M 3.566879,0.6624204 V 5.7579616"
     id="path2" />
  <path
     style="fill:#000000;fill-opacity:1;stroke:#000000;stroke-width:1.504;stroke-dasharray:none;stroke-opacity:1"
     d="M 19.401484,3.3536078 V 8.449149"
     id="path2-5" />
  <path
     style="fill:#000000;fill-opacity:1;stroke:#000000;stroke-width:1.504;stroke-dasharray:none;stroke-opacity:1"
     d="M 27.017051,0.71144346 V 5.8069847"
     id="path2-2" />
  <path
     style="fill:#000000;fill-opacity:1;stroke:#000000;stroke-width:1.66549;stroke-dasharray:none;stroke-opacity:1"
     d="M 13.055505,-0.9694841 V 5.2790465"
     id="path2-7" />
</svg>
